<svg xmlns="http://www.w3.org/2000/svg" xmlns:xlink="http://www.w3.org/1999/xlink" viewBox="0 0 475.27 154.84"><defs><style>.cls-1{fill:url(#linear-gradient);}.cls-2{fill:url(#linear-gradient-2);}.cls-3{fill:url(#linear-gradient-3);}.cls-4{fill:url(#linear-gradient-4);}.cls-5{fill:url(#linear-gradient-5);}.cls-6{fill:url(#linear-gradient-6);}.cls-7{fill:url(#linear-gradient-7);}.cls-8{fill:url(#linear-gradient-8);}.cls-9{fill:url(#linear-gradient-9);}</style><linearGradient id="linear-gradient" x1="89.58" y1="144.35" x2="12.83" y2="11.42" gradientUnits="userSpaceOnUse"><stop offset="0" stop-color="#b44cdc"/><stop offset="0.6" stop-color="#d75cc3"/><stop offset="1" stop-color="#ea65b6"/></linearGradient><linearGradient id="linear-gradient-2" x1="3.96" y1="59.29" x2="19.02" y2="44.23" gradientUnits="userSpaceOnUse"><stop offset="0" stop-color="#e261bc"/><stop offset="1" stop-color="#ea65b6"/></linearGradient><linearGradient id="linear-gradient-3" x1="169.17" y1="62.14" x2="137.02" y2="117.82" gradientUnits="userSpaceOnUse"><stop offset="0" stop-color="#bb4194"/><stop offset="0.33" stop-color="#b63c90"/><stop offset="0.71" stop-color="#a92f84"/><stop offset="1" stop-color="#992077"/></linearGradient><linearGradient id="linear-gradient-4" x1="222.15" y1="63.76" x2="191.75" y2="116.42" xlink:href="#linear-gradient-3"/><linearGradient id="linear-gradient-5" x1="267.78" y1="67.03" x2="241.04" y2="113.35" xlink:href="#linear-gradient-3"/><linearGradient id="linear-gradient-6" x1="311.08" y1="58.89" x2="283.28" y2="107.04" xlink:href="#linear-gradient-3"/><linearGradient id="linear-gradient-7" x1="364.64" y1="72.84" x2="335.95" y2="122.54" xlink:href="#linear-gradient-3"/><linearGradient id="linear-gradient-8" x1="413.87" y1="66.44" x2="384.15" y2="117.91" xlink:href="#linear-gradient-3"/><linearGradient id="linear-gradient-9" x1="469.88" y1="72.84" x2="441.18" y2="122.54" xlink:href="#linear-gradient-3"/></defs><g id="Layer_2" data-name="Layer 2"><g id="Layer_1-2" data-name="Layer 1"><path class="cls-1" d="M108.13,51.88A38.14,38.14,0,0,0,86.92,33.59h0A12.54,12.54,0,0,0,81.47,33a9.09,9.09,0,0,0-3.39,1.52.83.83,0,0,0-.16.09l-.28.24a8.32,8.32,0,0,0-2.18,2.76A13.82,13.82,0,0,0,74,42.77V86.22c0,.25,0,.49,0,.74v15a8.05,8.05,0,0,1-14.82,4.37,6,6,0,0,1-1.26-3.19v-.7c0-.17-.05-.32-.05-.48V84.81c0-.14,0-.27,0-.41V37.3s0-.06,0-.1l0-12.91S58.06,5.39,37.93.18C27.79-1.28,26.44,6.39,26.3,9.42l-.28,46h0v2a21.13,21.13,0,0,1-.49,2.76c0,.08-.05.17-.07.26s-.06.23-.1.35h0c-.18.47-.38.95-.63,1.45a4.69,4.69,0,0,0-.3.58A14.37,14.37,0,0,1,22,66.08a3.14,3.14,0,0,0-.52.5C18.63,69.11,14.2,71.1,7.21,71l0,0S.67,70.75.49,78.4h0L0,99.24a82.66,82.66,0,0,0,.61,8.6c.26,1.53.57,3,1,4.53.07.22.12.41.16.59a56.51,56.51,0,0,0,48.72,41.57h.1l.47.05.62,0a49.15,49.15,0,0,0,6.5.16v-9.89a8.17,8.17,0,1,1,16.33,0v6.93c.7-.23,1.08-.38,1.08-.38a56.49,56.49,0,0,0,37.2-53.09V79.17C112.76,62.82,109.53,54.65,108.13,51.88Z"/><path class="cls-2" d="M11.49,63.51a8.07,8.07,0,0,0,8-8V48.05a8,8,0,0,0-16.08,0v7.42A8.07,8.07,0,0,0,11.49,63.51Z"/><path class="cls-3" d="M141.83,69.62V84.41h22.59V69.62a6.93,6.93,0,0,1,1.42-4.76,4.79,4.79,0,0,1,3.75-1.59,5,5,0,0,1,3.83,1.57,6.84,6.84,0,0,1,1.46,4.78v40.69a6.79,6.79,0,0,1-1.48,4.79,5,5,0,0,1-3.81,1.59,4.74,4.74,0,0,1-3.76-1.61,7,7,0,0,1-1.41-4.77V92.94H141.83v17.37a6.79,6.79,0,0,1-1.48,4.79,4.94,4.94,0,0,1-3.8,1.59,4.76,4.76,0,0,1-3.77-1.61,7,7,0,0,1-1.41-4.77V69.62a7,7,0,0,1,1.39-4.76,4.78,4.78,0,0,1,3.79-1.59,5,5,0,0,1,3.82,1.57A6.84,6.84,0,0,1,141.83,69.62Z"/><path class="cls-4" d="M220.88,72.22H197.3V84.91H219A5.18,5.18,0,0,1,222.58,86a3.65,3.65,0,0,1,1.18,2.84,3.78,3.78,0,0,1-1.16,2.87A5,5,0,0,1,219,92.8H197.3v14.69h24.39a5.29,5.29,0,0,1,3.71,1.15,3.9,3.9,0,0,1,1.25,3,3.82,3.82,0,0,1-1.25,3,5.33,5.33,0,0,1-3.71,1.15H193.25c-2.28,0-3.91-.51-4.91-1.52s-1.5-2.64-1.5-4.9V70.57a8.62,8.62,0,0,1,.67-3.68,4.1,4.1,0,0,1,2.1-2.08,8.68,8.68,0,0,1,3.64-.66h27.63a5.36,5.36,0,0,1,3.71,1.12,3.72,3.72,0,0,1,1.22,2.9,3.79,3.79,0,0,1-1.22,2.94A5.36,5.36,0,0,1,220.88,72.22Z"/><path class="cls-5" d="M274.94,100.3a15.23,15.23,0,0,1-2.41,8.42,16.06,16.06,0,0,1-7.07,5.85,26.47,26.47,0,0,1-11,2.12q-7.63,0-12.61-2.89a16.78,16.78,0,0,1-5.72-5.55,12.58,12.58,0,0,1-2.21-6.75,4.56,4.56,0,0,1,4.69-4.61,4,4,0,0,1,2.8,1,8.51,8.51,0,0,1,2,3.14,20.19,20.19,0,0,0,2.13,4.12,8.46,8.46,0,0,0,3.22,2.73,11.89,11.89,0,0,0,5.46,1.08,12.37,12.37,0,0,0,7.56-2.17,6.51,6.51,0,0,0,2.91-5.41,5.74,5.74,0,0,0-1.57-4.17A10.12,10.12,0,0,0,259,94.81a66.49,66.49,0,0,0-6.65-1.8A48.15,48.15,0,0,1,243,90a15.07,15.07,0,0,1-6-4.75,12.35,12.35,0,0,1-2.2-7.49,12.82,12.82,0,0,1,2.33-7.58,14.74,14.74,0,0,1,6.72-5.09,27.7,27.7,0,0,1,10.36-1.78,25.82,25.82,0,0,1,8.23,1.18,17.58,17.58,0,0,1,5.76,3.14,13.12,13.12,0,0,1,3.35,4.1,9.58,9.58,0,0,1,1.05,4.2,5,5,0,0,1-1.32,3.36,4.21,4.21,0,0,1-3.29,1.5,3.78,3.78,0,0,1-2.73-.9,12.27,12.27,0,0,1-2-2.94,13.37,13.37,0,0,0-3.38-4.56c-1.32-1.1-3.43-1.64-6.34-1.64a11,11,0,0,0-6.54,1.78,5.17,5.17,0,0,0-2.48,4.28,4.39,4.39,0,0,0,.84,2.68,7.17,7.17,0,0,0,2.33,1.93,15.42,15.42,0,0,0,3,1.27c1,.31,2.68.75,5,1.34a76.29,76.29,0,0,1,7.91,2.26,24,24,0,0,1,6,3,12.34,12.34,0,0,1,3.88,4.46A14.35,14.35,0,0,1,274.94,100.3Z"/><path class="cls-6" d="M318.08,72.79H306.66v37.52a6.93,6.93,0,0,1-1.44,4.81,5.26,5.26,0,0,1-7.52,0,6.83,6.83,0,0,1-1.46-4.79V72.79H284.82a5.82,5.82,0,0,1-4-1.18,4,4,0,0,1-1.3-3.12,4,4,0,0,1,1.35-3.17,5.87,5.87,0,0,1,3.93-1.17h33.26a5.83,5.83,0,0,1,4,1.2,4,4,0,0,1,1.33,3.14,4,4,0,0,1-1.34,3.12A6,6,0,0,1,318.08,72.79Z"/><path class="cls-7" d="M358.86,110l-2.47-6.49h-21l-2.47,6.63a22.6,22.6,0,0,1-2.47,5.23,3.92,3.92,0,0,1-3.34,1.36,4.88,4.88,0,0,1-3.49-1.45,4.41,4.41,0,0,1-1.52-3.27,7.17,7.17,0,0,1,.36-2.19c.23-.75.62-1.8,1.16-3.13L336.84,73.1l1.36-3.47a17.46,17.46,0,0,1,1.69-3.36,6.85,6.85,0,0,1,2.36-2.17,7.25,7.25,0,0,1,3.61-.83,7.35,7.35,0,0,1,3.65.83,7,7,0,0,1,2.36,2.13,15.09,15.09,0,0,1,1.51,2.8c.41,1,.94,2.34,1.57,4l13.49,33.33A16.77,16.77,0,0,1,370,111.9a4.58,4.58,0,0,1-1.5,3.29,4.92,4.92,0,0,1-3.61,1.5,4.7,4.7,0,0,1-2.11-.44,4.45,4.45,0,0,1-1.48-1.2,11.12,11.12,0,0,1-1.29-2.33C359.58,111.68,359.19,110.76,358.86,110ZM338.14,95.62h15.44L345.79,74.3Z"/><path class="cls-8" d="M392.49,93.72h-3.66v16.59a6.94,6.94,0,0,1-1.45,4.83,4.92,4.92,0,0,1-3.77,1.55,4.78,4.78,0,0,1-3.87-1.62,7.17,7.17,0,0,1-1.38-4.76V70.57q0-3.39,1.52-4.9t4.89-1.52h17a54,54,0,0,1,6,.3,15.25,15.25,0,0,1,4.51,1.22,13.08,13.08,0,0,1,4.29,2.92A12.84,12.84,0,0,1,419.46,73a14.65,14.65,0,0,1,1,5.33,12.93,12.93,0,0,1-3.26,9.24q-3.26,3.45-9.88,4.89a19.37,19.37,0,0,1,5.32,4.37,45.08,45.08,0,0,1,4.53,6.15,47.58,47.58,0,0,1,3.1,5.88,11.56,11.56,0,0,1,1.1,3.61,3.64,3.64,0,0,1-.65,2,4.58,4.58,0,0,1-1.78,1.59,5.69,5.69,0,0,1-2.6.58,5.07,5.07,0,0,1-3-.83,7.78,7.78,0,0,1-2.06-2.1c-.58-.84-1.36-2.09-2.35-3.73l-4.19-7a38.71,38.71,0,0,0-4-5.85,9.86,9.86,0,0,0-3.62-2.74A12.26,12.26,0,0,0,392.49,93.72Zm6-21.71h-9.65v14.2h9.37a26.53,26.53,0,0,0,6.34-.65,7.49,7.49,0,0,0,3.93-2.22A6.41,6.41,0,0,0,409.82,79a6.52,6.52,0,0,0-4.12-6.23Q403.87,72,398.48,72Z"/><path class="cls-9" d="M464.1,110l-2.47-6.49h-21l-2.46,6.63a23.48,23.48,0,0,1-2.47,5.23,3.92,3.92,0,0,1-3.34,1.36,4.88,4.88,0,0,1-3.49-1.45,4.41,4.41,0,0,1-1.52-3.27,7.46,7.46,0,0,1,.35-2.19c.24-.75.63-1.8,1.17-3.13L442.08,73.1c.37-1,.83-2.11,1.36-3.47a16.91,16.91,0,0,1,1.69-3.36,6.85,6.85,0,0,1,2.36-2.17,8.33,8.33,0,0,1,7.25,0,7,7,0,0,1,2.37,2.13,15.7,15.7,0,0,1,1.51,2.8c.41,1,.93,2.34,1.57,4l13.49,33.33a16.77,16.77,0,0,1,1.59,5.54,4.58,4.58,0,0,1-1.5,3.29,4.92,4.92,0,0,1-3.61,1.5,4.7,4.7,0,0,1-2.11-.44,4.35,4.35,0,0,1-1.48-1.2,11.12,11.12,0,0,1-1.29-2.33C464.82,111.68,464.43,110.76,464.1,110ZM443.38,95.62h15.43L451,74.3Z"/></g></g></svg>